<svg width="18" height="16" viewBox="0 0 18 16" fill="none" xmlns="http://www.w3.org/2000/svg">
<path d="M16.0648 3.08575H13.3286L12.6768 1.27901C12.6318 1.15538 12.5492 1.04852 12.4405 0.973019C12.3317 0.897518 12.2021 0.857062 12.0692 0.857178H5.89667C5.62506 0.857178 5.38162 1.02631 5.29109 1.27901L4.63722 3.08575H1.90103C1.01177 3.08575 0.291504 3.7981 0.291504 4.67759V13.7511C0.291504 14.6305 1.01177 15.3429 1.90103 15.3429H16.0648C16.9541 15.3429 17.6744 14.6305 17.6744 13.7511V4.67759C17.6744 3.7981 16.9541 3.08575 16.0648 3.08575ZM8.98293 12.1592C7.20441 12.1592 5.76388 10.7345 5.76388 8.97554C5.76388 7.21657 7.20441 5.79187 8.98293 5.79187C10.7615 5.79187 12.202 7.21657 12.202 8.97554C12.202 10.7345 10.7615 12.1592 8.98293 12.1592ZM7.0515 8.97554C7.0515 9.48216 7.25499 9.96803 7.61721 10.3263C7.97942 10.6845 8.47069 10.8857 8.98293 10.8857C9.49518 10.8857 9.98645 10.6845 10.3487 10.3263C10.7109 9.96803 10.9144 9.48216 10.9144 8.97554C10.9144 8.46893 10.7109 7.98306 10.3487 7.62483C9.98645 7.26659 9.49518 7.06534 8.98293 7.06534C8.47069 7.06534 7.97942 7.26659 7.61721 7.62483C7.25499 7.98306 7.0515 8.46893 7.0515 8.97554Z" fill="white"/>
</svg>
